<svg preserveAspectRatio="xMidYMid meet" data-bbox="0.08 0.7 261.802 41.337" xmlns="http://www.w3.org/2000/svg" viewBox="0.08 0.7 261.802 41.337" height="48" width="262" data-type="color" role="presentation" aria-hidden="true" aria-label="">
    <g>
        <path fill="#222222" d="M55.993 38.974v.237h-3.71v-.237h.307q.537 0 .78-.313.153-.205.152-.985v-5.603q0-.658-.083-.87a.58.58 0 0 0-.261-.274 1.2 1.2 0 0 0-.588-.153h-.306v-.237h3.71v.237h-.314q-.53 0-.772.313-.16.205-.16.985v5.602q0 .66.084.87a.57.57 0 0 0 .267.275q.275.153.581.153z" data-color="1"></path>
        <path fill="#222222" d="M59.254 33.18q1.328 0 2.133 1.01.683.864.683 1.982 0 .787-.377 1.592-.375.806-1.037 1.215-.66.41-1.472.41-1.32 0-2.1-1.055a3.27 3.27 0 0 1-.658-1.995q0-.807.4-1.602.398-.797 1.05-1.176.65-.38 1.378-.38zm-.198.416a1.33 1.33 0 0 0-.68.201q-.341.201-.552.707-.21.505-.211 1.298 0 1.28.507 2.206.508.927 1.338.927.62 0 1.021-.512.403-.511.403-1.759 0-1.56-.67-2.456-.454-.614-1.156-.613" data-color="1"></path>
        <path fill="#222222" d="m69.761 30.539.096 2.033h-.242q-.07-.537-.192-.767a1.3 1.3 0 0 0-.527-.547q-.33-.176-.865-.176h-1.22v6.625q0 .799.172.998.242.269.747.268h.3v.237h-3.67v-.237h.306q.549 0 .779-.332.14-.205.14-.934v-6.625h-1.04q-.607 0-.863.09-.33.12-.568.466-.237.345-.28.933h-.243l.102-2.033z" data-color="1"></path>
        <path fill="#222222" d="m80.435 30.34.198 2.948h-.198q-.395-1.324-1.13-1.906t-1.763-.582q-.862 0-1.558.438-.696.439-1.095 1.397-.4.96-.4 2.386 0 1.176.377 2.04a2.83 2.83 0 0 0 1.133 1.323q.757.461 1.727.46.843 0 1.487-.36.645-.361 1.418-1.436l.198.127q-.65 1.158-1.52 1.695-.869.537-2.062.538-2.151 0-3.333-1.6-.88-1.188-.881-2.8 0-1.297.58-2.385a4.2 4.2 0 0 1 1.6-1.685 4.3 4.3 0 0 1 2.225-.598q.939 0 1.851.46.27.14.383.14.172 0 .3-.12a1 1 0 0 0 .237-.48h.225" data-color="1"></path>
        <path fill="#222222" d="M84.226 33.18q1.328 0 2.132 1.01.684.864.683 1.982 0 .787-.376 1.592-.377.806-1.037 1.215t-1.472.41q-1.32 0-2.1-1.055a3.27 3.27 0 0 1-.659-1.995q0-.807.4-1.602.399-.797 1.05-1.176.651-.38 1.379-.38zm-.198.416a1.33 1.33 0 0 0-.68.201q-.342.201-.553.707-.21.505-.21 1.298 0 1.28.507 2.206.507.927 1.338.927.618 0 1.021-.512.403-.511.403-1.759 0-1.56-.67-2.456-.454-.614-1.156-.613" data-color="1"></path>
        <path fill="#222222" d="M89.281 34.421q1.029-1.24 1.96-1.24.48 0 .823.24.345.238.55.79.14.383.14 1.175v2.5q0 .556.09.756.069.16.226.249.157.09.578.09v.23h-2.893v-.23h.121q.409 0 .572-.125a.66.66 0 0 0 .226-.368q.026-.096.026-.6V35.49q0-.8-.208-1.16-.208-.362-.699-.362-.76 0-1.513.831v3.089q0 .593.07.735.09.186.247.272.156.087.635.086v.23H87.34v-.23h.127q.448 0 .603-.227.157-.227.156-.866v-2.174q0-1.056-.047-1.286-.048-.23-.147-.313a.4.4 0 0 0-.264-.083q-.18 0-.428.096l-.096-.23 1.762-.717h.274v1.241z" data-color="1"></path>
        <path fill="#222222" d="M93.488 33.352h2.751v.237h-.179q-.249 0-.38.121a.42.42 0 0 0-.13.327q0 .224.134.53l1.36 3.237 1.366-3.358q.147-.358.146-.543a.22.22 0 0 0-.05-.147.35.35 0 0 0-.18-.131q-.108-.035-.44-.035v-.237h1.909v.237q-.332.026-.46.134-.224.192-.402.64l-2.075 5.026h-.261l-2.089-4.943q-.14-.345-.267-.495a1.1 1.1 0 0 0-.326-.253q-.108-.057-.428-.108z" data-color="1"></path>
        <path fill="#222222" d="M100.982 35.559q-.007 1.305.633 2.046.638.742 1.5.742.574 0 .999-.316.425-.318.712-1.085l.198.128q-.135.876-.779 1.596-.645.719-1.615.719-1.054 0-1.804-.822t-.75-2.21q0-1.501.769-2.344.77-.84 1.931-.84.984 0 1.616.65.632.648.632 1.735zm0-.37h2.707q-.031-.564-.134-.794a1.26 1.26 0 0 0-.475-.563 1.2 1.2 0 0 0-.661-.204q-.53 0-.948.412-.418.413-.488 1.148z" data-color="1"></path>
        <path fill="#222222" d="M107.186 33.18v1.317q.735-1.317 1.507-1.317.351 0 .581.214a.66.66 0 0 1 .23.495.6.6 0 0 1-.167.423.53.53 0 0 1-.395.172c-.153 0-.316-.074-.502-.22q-.277-.222-.412-.222-.115 0-.249.128-.287.263-.593.864v2.807q0 .487.121.735a.66.66 0 0 0 .294.288q.21.116.606.116v.23h-2.995v-.23q.447 0 .664-.14a.55.55 0 0 0 .224-.327q.032-.109.032-.62v-2.271q0-1.023-.042-1.218a.47.47 0 0 0-.153-.285.43.43 0 0 0-.277-.09q-.197 0-.447.097l-.064-.23 1.769-.716z" data-color="1"></path>
        <path fill="#222222" d="M110.831 37.075a1.93 1.93 0 0 1-.823-.732 1.95 1.95 0 0 1-.287-1.04q0-.868.654-1.495t1.676-.627q.837 0 1.45.41h1.238q.276 0 .32.015.045.016.063.054.038.057.038.205 0 .166-.031.23a.13.13 0 0 1-.068.05q-.048.02-.322.02h-.76q.357.461.357 1.176 0 .82-.626 1.4-.626.583-1.679.582-.434 0-.888-.128-.281.243-.379.426a.7.7 0 0 0-.099.31q0 .109.105.211.105.104.412.147.178.025.894.045 1.315.03 1.705.09.593.083.947.44.355.359.355.883 0 .723-.677 1.356-.996.933-2.599.933-1.233 0-2.081-.556-.478-.32-.478-.665a.7.7 0 0 1 .07-.307q.108-.236.447-.66.045-.056.651-.69-.332-.197-.469-.355a.52.52 0 0 1-.137-.354q0-.224.182-.525.182-.3.84-.85zm-.063 2.136a3 3 0 0 0-.454.607q-.153.28-.153.518 0 .307.37.538.639.396 1.845.396c.805 0 1.332-.135 1.695-.406q.546-.406.546-.867 0-.333-.325-.473-.332-.14-1.316-.166-1.436-.038-2.209-.146zm1.174-5.724a1 1 0 0 0-.792.377q-.32.378-.319 1.157 0 1.011.434 1.567.332.422.843.422c.34 0 .589-.121.798-.364q.313-.364.313-1.144 0-1.018-.441-1.593a1.01 1.01 0 0 0-.836-.422" data-color="1"></path>
        <path fill="#222222" d="M116.461 35.559q-.007 1.305.632 2.046.639.742 1.5.742.575 0 1-.316.425-.318.711-1.085l.198.128q-.134.876-.779 1.596-.644.719-1.615.719-1.053 0-1.803-.822t-.751-2.21q0-1.501.77-2.344.769-.84 1.931-.84.983 0 1.615.65.632.648.632 1.735zm0-.37h2.707q-.032-.564-.134-.794a1.27 1.27 0 0 0-.476-.563 1.2 1.2 0 0 0-.66-.204q-.531 0-.948.412-.419.413-.488 1.148z" data-color="1"></path>
        <path fill="#222222" d="M122.66 34.421q1.027-1.24 1.959-1.24.48 0 .824.24.345.238.549.79.14.383.14 1.175v2.5q0 .556.09.756a.52.52 0 0 0 .226.249q.158.09.578.09v.23h-2.892v-.23h.121q.409 0 .571-.125a.66.66 0 0 0 .227-.368q.025-.096.025-.6V35.49q0-.8-.207-1.16-.209-.362-.699-.362-.761 0-1.513.831v3.089q0 .593.07.735.09.186.246.272.157.087.636.086v.23h-2.893v-.23h.128q.447 0 .603-.227t.156-.866v-2.174q0-1.056-.048-1.286t-.146-.313a.4.4 0 0 0-.265-.083 1.2 1.2 0 0 0-.428.096l-.096-.23 1.763-.717h.274v1.241z" data-color="1"></path>
        <path fill="#222222" d="M132.133 36.985q-.237 1.157-.926 1.781t-1.525.624q-.996 0-1.736-.837-.741-.839-.741-2.264c0-.951.273-1.67.82-2.245q.82-.863 1.97-.863.861 0 1.417.457.555.457.555.95a.52.52 0 0 1-.156.393q-.156.15-.437.15-.377 0-.568-.243-.11-.135-.144-.512-.035-.378-.258-.575-.224-.192-.62-.193-.639 0-1.028.474-.517.626-.517 1.656c0 .687.171 1.316.514 1.851q.513.803 1.389.803.625 0 1.123-.43.351-.294.683-1.067z" data-color="1"></path>
        <path fill="#222222" d="M133.626 35.559q-.007 1.305.632 2.046.639.742 1.5.742.575 0 1-.316.424-.318.711-1.085l.198.128q-.134.876-.779 1.596-.644.719-1.615.719-1.053 0-1.803-.822t-.751-2.21q0-1.501.77-2.344.769-.84 1.931-.84.983 0 1.615.65.632.648.632 1.735zm0-.37h2.707q-.032-.564-.134-.794a1.27 1.27 0 0 0-.475-.563 1.2 1.2 0 0 0-.661-.204q-.531 0-.948.412-.419.413-.488 1.148z" data-color="1"></path>
        <path fill="#222222" d="M147.324 33.628h2.682v.236q-.555.045-.82.246-.266.202-.827 1.219a13.5 13.5 0 0 1-1.264 1.9q.569.664 1.016.93.447.265.9.265c.302 0 .543-.08.747-.24q.307-.24.434-.706l.237.172q-.237.902-.76 1.33a1.87 1.87 0 0 1-1.22.43q-.524 0-1.063-.285-.54-.284-1.177-.962-.792.703-1.428.975-.635.27-1.356.271-1.053 0-1.673-.562t-.619-1.343c0-.52.185-1.03.555-1.545q.555-.77 2.088-1.595a7 7 0 0 1-.409-1.091 3.3 3.3 0 0 1-.109-.815q0-1.093.805-1.67a2.4 2.4 0 0 1 1.424-.447c.532 0 .919.15 1.238.45q.48.452.479 1.11c0 .44-.155.849-.463 1.19q-.463.513-1.638 1.12a26 26 0 0 0 1.692 2.647q1.124-1.344 1.124-2.264a.8.8 0 0 0-.192-.525.58.58 0 0 0-.403-.205zm-1.449 4.163q-.843-1.151-1.168-1.682a17 17 0 0 1-.715-1.318q-.767.442-1.152.973a1.9 1.9 0 0 0-.386 1.15q0 .685.44 1.203.441.519 1.188.519.402 0 .775-.16t1.019-.684zm-.99-3.996q.792-.378 1.184-.857.393-.48.393-1.068 0-.46-.283-.762a.94.94 0 0 0-.706-.3q-.555 0-.839.386-.284.387-.284.758 0 .313.109.7.108.387.428 1.142z" data-color="1"></path>
        <path fill="#222222" d="M158.221 30.34q1.686 0 2.921 1.282 1.236 1.282 1.236 3.2c0 1.279-.415 2.41-1.245 3.28q-1.245 1.305-3.014 1.306c-1.179 0-2.193-.424-3.004-1.273q-1.217-1.272-1.217-3.293c0-1.347.469-2.5 1.405-3.37q1.219-1.132 2.918-1.132m-.121.467q-1.162 0-1.865.863-.874 1.074-.874 3.146c0 1.382.301 2.506.906 3.268q.696.87 1.839.87 1.22 0 2.014-.952.795-.953.795-3.006 0-2.226-.875-3.319-.702-.87-1.941-.87z" data-color="1"></path>
        <path fill="#222222" d="m162.542 33.934 1.8-.73h.243v1.37q.453-.775.91-1.085.456-.31.961-.31.881 0 1.468.69.722.844.722 2.2 0 1.516-.869 2.506a2.3 2.3 0 0 1-1.8.812 2.2 2.2 0 0 1-.817-.134q-.257-.096-.575-.383v1.784q0 .6.074.764a.55.55 0 0 0 .255.259q.181.096.661.096v.237h-3.065v-.237h.16q.35.007.599-.134a.46.46 0 0 0 .189-.227q.067-.157.067-.796v-5.538q0-.57-.05-.722a.44.44 0 0 0-.163-.23.53.53 0 0 0-.303-.078q-.154 0-.39.09zm2.043 1.017v2.187q0 .71.058.933.089.37.437.653.348.28.878.28.639 0 1.035-.498.517-.653.517-1.835 0-1.343-.587-2.065-.409-.5-.971-.499-.307 0-.606.153-.23.116-.76.69z" data-color="1"></path>
        <path fill="#222222" d="M170.158 35.559q-.007 1.305.632 2.046.639.742 1.5.742.575 0 .999-.316.425-.318.712-1.085l.198.128q-.134.876-.779 1.596-.644.719-1.615.719-1.053 0-1.804-.822-.75-.822-.75-2.21 0-1.501.769-2.344.77-.84 1.932-.84.983 0 1.615.65.632.648.632 1.735zm0-.37h2.707q-.032-.564-.134-.794a1.27 1.27 0 0 0-.476-.563 1.2 1.2 0 0 0-.661-.204q-.53 0-.947.412-.418.413-.489 1.148" data-color="1"></path>
        <path fill="#222222" d="M176.356 34.421q1.029-1.24 1.96-1.24.479 0 .824.24.344.238.549.79.14.383.14 1.175v2.5q0 .556.09.756a.52.52 0 0 0 .226.249q.157.09.578.09v.23h-2.893v-.23h.122q.408 0 .571-.125a.66.66 0 0 0 .227-.368q.025-.096.025-.6V35.49q0-.8-.208-1.16-.207-.362-.699-.362-.76 0-1.512.831v3.089q0 .593.07.735a.6.6 0 0 0 .246.272q.156.087.635.086v.23h-2.892v-.23h.127q.448 0 .603-.227.157-.227.157-.866v-2.174q0-1.056-.048-1.286t-.147-.313a.4.4 0 0 0-.264-.083 1.2 1.2 0 0 0-.428.096l-.096-.23 1.762-.717h.275v1.241" data-color="1"></path>
        <path fill="#222222" d="M189.391 30.34v3h-.236q-.115-.862-.412-1.375a2.14 2.14 0 0 0-.847-.812q-.55-.3-1.136-.3-.665 0-1.098.406-.435.406-.435.924 0 .396.274.722.396.48 1.884 1.279 1.213.652 1.657 1 .444.35.683.822.24.474.24.992 0 .984-.763 1.698-.764.712-1.963.712a4 4 0 0 1-.709-.058q-.199-.032-.82-.233-.623-.201-.789-.202a.33.33 0 0 0-.252.096q-.092.097-.137.397h-.236v-2.973h.236q.166.933.447 1.397.28.465.859.77.578.309 1.267.308.799 0 1.261-.422.463-.422.463-.998 0-.32-.176-.646a1.9 1.9 0 0 0-.546-.608q-.25-.192-1.36-.815t-1.58-.994a2.7 2.7 0 0 1-.712-.819 2.04 2.04 0 0 1-.242-.985q0-.933.715-1.608t1.819-.674q.69 0 1.462.339.359.16.504.16a.38.38 0 0 0 .271-.1q.106-.1.169-.4z" data-color="1"></path>
        <path fill="#222222" d="M192.467 30.116v4.285q.71-.78 1.124-1.001t.83-.22q.498 0 .855.274t.53.864q.121.409.121 1.496v2.072q0 .556.09.76a.5.5 0 0 0 .217.243q.153.09.562.09v.23h-2.874v-.23h.134q.409 0 .569-.124a.67.67 0 0 0 .223-.368q.02-.102.019-.6v-2.072q0-.96-.099-1.26a.85.85 0 0 0-.316-.45.9.9 0 0 0-.524-.15 1.5 1.5 0 0 0-.651.165q-.34.166-.811.672v3.094q0 .601.067.749.067.147.249.246t.629.099v.23h-2.899v-.23q.39 0 .613-.121a.46.46 0 0 0 .204-.243q.078-.18.077-.73v-5.301q0-1.005-.047-1.234-.048-.23-.147-.314a.4.4 0 0 0-.265-.083q-.134 0-.434.102l-.089-.224 1.749-.716z" data-color="1"></path>
        <path fill="#222222" d="M200.275 38.366q-.9.696-1.13.805a1.7 1.7 0 0 1-.734.16q-.607-.001-.999-.416-.393-.416-.393-1.094 0-.428.191-.742.262-.435.91-.818.648-.384 2.155-.934v-.23q0-.876-.278-1.203-.278-.326-.807-.326-.402 0-.639.218-.242.217-.242.498l.012.37q0 .295-.149.455a.51.51 0 0 1-.393.16.49.49 0 0 1-.386-.166q-.15-.167-.15-.455 0-.55.562-1.01t1.577-.46q.778 0 1.276.262.377.198.556.62.115.276.115 1.126v1.989q0 .838.032 1.026.031.189.105.253a.25.25 0 0 0 .169.064.36.36 0 0 0 .179-.044q.133-.084.517-.467v.358q-.715.96-1.366.959a.62.62 0 0 1-.498-.218q-.185-.217-.192-.742zm0-.416v-2.232q-.964.383-1.245.543-.504.282-.721.589a1.14 1.14 0 0 0-.217.671q0 .46.274.764.275.304.632.304.485 0 1.277-.64" data-color="1"></path>
        <path fill="#222222" d="M204.149 33.18v1.317q.734-1.317 1.506-1.317.351 0 .581.214a.66.66 0 0 1 .23.495.6.6 0 0 1-.166.423.53.53 0 0 1-.396.172c-.153 0-.316-.074-.502-.22q-.277-.222-.412-.222-.114 0-.248.128-.288.263-.594.864v2.807q0 .487.121.735a.67.67 0 0 0 .294.288q.211.116.607.116v.23h-2.995v-.23q.447 0 .664-.14a.55.55 0 0 0 .223-.327q.032-.109.032-.62v-2.271q0-1.023-.041-1.218a.48.48 0 0 0-.153-.285.43.43 0 0 0-.278-.09q-.197 0-.446.097l-.065-.23 1.769-.716z" data-color="1"></path>
        <path fill="#222222" d="M208.483 33.18v4.706q0 .55.08.733a.56.56 0 0 0 .236.271q.157.09.571.09v.23h-2.841v-.23q.428 0 .575-.083a.57.57 0 0 0 .233-.275q.087-.192.086-.736V35.63q0-.953-.058-1.234-.045-.205-.14-.285a.4.4 0 0 0-.261-.08q-.179 0-.435.096l-.089-.23 1.762-.717zm-.53-3.064q.268 0 .456.19a.63.63 0 0 1 .189.456q0 .27-.189.46a.6.6 0 0 1-.456.193.62.62 0 0 1-.46-.192.63.63 0 0 1-.192-.46q0-.27.189-.458a.63.63 0 0 1 .463-.189" data-color="1"></path>
        <path fill="#222222" d="M211.476 34.421q1.027-1.24 1.96-1.24.478 0 .823.24.345.238.549.79.141.383.141 1.175v2.5q0 .556.089.756.07.16.227.249.156.09.577.09v.23h-2.892v-.23h.121q.409 0 .572-.125a.66.66 0 0 0 .226-.368q.026-.096.026-.6V35.49q0-.8-.208-1.16-.209-.362-.699-.362-.76 0-1.513.831v3.089q0 .593.071.735a.6.6 0 0 0 .245.272q.158.087.636.086v.23h-2.893v-.23h.128q.447 0 .603-.227.157-.227.156-.866v-2.174q0-1.056-.047-1.286-.048-.23-.147-.313a.4.4 0 0 0-.265-.083q-.178 0-.428.096l-.096-.23 1.763-.717h.274v1.241z" data-color="1"></path>
        <path fill="#222222" d="M217.546 37.075a1.93 1.93 0 0 1-.823-.732 1.95 1.95 0 0 1-.287-1.04q0-.868.655-1.495.653-.627 1.676-.627.836 0 1.449.41h1.239q.274 0 .319.015.045.016.064.054.038.057.038.205a.6.6 0 0 1-.032.23.13.13 0 0 1-.067.05q-.048.02-.323.02h-.76q.358.461.357 1.176 0 .82-.626 1.4-.625.583-1.679.582-.434 0-.887-.128-.282.243-.38.426a.7.7 0 0 0-.099.31q0 .109.105.211.106.104.412.147.179.025.894.045 1.315.03 1.705.09.593.083.948.44.354.359.354.883 0 .723-.677 1.356-.996.933-2.598.933-1.233 0-2.081-.556-.48-.32-.479-.665a.7.7 0 0 1 .07-.307q.11-.236.447-.66.045-.056.652-.69-.332-.197-.469-.355a.52.52 0 0 1-.137-.354q0-.224.182-.525.182-.3.839-.85zm-.063 2.136q-.3.326-.453.607t-.153.518q0 .307.37.538.637.396 1.845.396c.804 0 1.331-.135 1.695-.406q.545-.406.546-.867 0-.333-.326-.473-.332-.14-1.315-.166-1.437-.038-2.21-.146zm1.174-5.724a1 1 0 0 0-.791.377q-.32.378-.32 1.157 0 1.011.435 1.567.332.422.842.422c.34 0 .59-.121.798-.364q.313-.364.313-1.144 0-1.018-.441-1.593a1.01 1.01 0 0 0-.836-.422" data-color="1"></path>
        <path fill="#222222" d="M230.722 30.34v3h-.236q-.115-.862-.412-1.375a2.14 2.14 0 0 0-.847-.812q-.55-.3-1.136-.3-.665 0-1.098.406-.435.406-.435.924 0 .396.275.722.395.48 1.883 1.279 1.213.652 1.657 1 .444.35.683.822.24.474.24.992 0 .984-.763 1.698-.764.712-1.963.712a4 4 0 0 1-.709-.058q-.199-.032-.82-.233-.623-.201-.789-.202a.33.33 0 0 0-.252.096q-.092.097-.137.397h-.236v-2.973h.236q.166.933.447 1.397.28.465.859.77.578.309 1.267.308.798 0 1.261-.422t.463-.998q0-.32-.176-.646a1.9 1.9 0 0 0-.546-.608q-.249-.192-1.36-.815t-1.58-.994a2.7 2.7 0 0 1-.712-.819 2.04 2.04 0 0 1-.242-.985q0-.933.715-1.608.714-.675 1.819-.674.69 0 1.462.339.359.16.504.16a.38.38 0 0 0 .271-.1q.106-.1.169-.4z" data-color="1"></path>
        <path fill="#222222" d="M231.749 33.353h2.726v.236h-.134q-.287 0-.431.125a.4.4 0 0 0-.143.31q0 .25.211.69l1.424 2.955 1.309-3.236q.108-.263.109-.519a.3.3 0 0 0-.045-.173.34.34 0 0 0-.159-.111q-.109-.042-.383-.042v-.236h1.903v.236a.9.9 0 0 0-.364.103q-.128.075-.28.288-.057.09-.218.492l-2.381 5.845q-.345.85-.903 1.285-.559.435-1.077.435a.9.9 0 0 1-.619-.218q-.243-.217-.243-.498c0-.187.059-.323.175-.432q.176-.162.482-.163.21 0 .575.141.255.095.319.096.191 0 .419-.198.227-.2.456-.768l.415-1.017-2.101-4.419a3.6 3.6 0 0 0-.306-.492 1.5 1.5 0 0 0-.262-.3q-.147-.103-.472-.18v-.236z" data-color="1"></path>
        <path fill="#222222" d="M242.072 33.18v1.995h-.211q-.242-.94-.623-1.279-.38-.339-.967-.339-.447 0-.721.237-.275.237-.275.525 0 .358.205.613.197.262.804.557l.932.454q1.296.633 1.296 1.669 0 .799-.603 1.288a2.1 2.1 0 0 1-1.351.49 4.7 4.7 0 0 1-1.226-.193 1.2 1.2 0 0 0-.344-.064q-.148 0-.23.166h-.211v-2.091h.211q.179.896.683 1.35.504.453 1.13.453.44 0 .718-.259a.82.82 0 0 0 .277-.623 1 1 0 0 0-.309-.742q-.31-.3-1.236-.76-.925-.462-1.213-.832-.287-.365-.287-.92 0-.723.495-1.21.494-.485 1.279-.485.345 0 .836.147.327.096.435.096a.25.25 0 0 0 .159-.045.6.6 0 0 0 .134-.198z" data-color="1"></path>
        <path fill="#222222" d="M244.752 31.428v1.924h1.366v.448h-1.366v3.8q0 .57.163.768a.52.52 0 0 0 .418.198q.21 0 .409-.131a.85.85 0 0 0 .307-.387h.249q-.224.627-.633.943-.408.318-.842.317-.294 0-.575-.163a1 1 0 0 1-.415-.466q-.134-.304-.134-.937v-3.94h-.926v-.21q.351-.141.718-.477t.655-.796q.146-.243.409-.889h.198z" data-color="1"></path>
        <path fill="#222222" d="M247.343 35.559q-.006 1.305.632 2.046.639.742 1.5.742.575 0 1-.316.424-.318.711-1.085l.198.128q-.134.876-.779 1.596-.644.719-1.615.719-1.053 0-1.803-.822-.751-.822-.751-2.21 0-1.501.77-2.344.769-.84 1.931-.84.983 0 1.615.65.632.648.632 1.735zm0-.37h2.707q-.033-.564-.134-.794a1.27 1.27 0 0 0-.476-.563 1.2 1.2 0 0 0-.661-.204q-.53 0-.947.412-.418.413-.489 1.148" data-color="1"></path>
        <path fill="#222222" d="M253.573 34.428q.639-.64.754-.736.287-.243.62-.377.332-.135.657-.134.55 0 .945.32.396.32.53.927.658-.767 1.111-1.008.453-.24.932-.24c.32 0 .587.08.827.24q.36.24.571.784.14.37.14 1.163v2.52q0 .55.084.755a.54.54 0 0 0 .236.24q.172.098.562.099v.23h-2.887v-.23h.122q.377 0 .587-.147a.58.58 0 0 0 .211-.327q.025-.108.025-.62v-2.52q0-.716-.173-1.01-.248-.41-.798-.41-.338 0-.68.17-.341.17-.826.63l-.013.071.013.275v2.794q0 .601.067.749.068.147.252.246.186.1.633.1v.23h-2.956v-.23q.485 0 .667-.116a.6.6 0 0 0 .252-.345q.032-.108.032-.633v-2.52q0-.716-.211-1.03a.9.9 0 0 0-.786-.409 1.4 1.4 0 0 0-.683.186q-.53.28-.817.633v3.14q0 .576.08.749a.55.55 0 0 0 .236.259q.157.086.636.086v.23h-2.892v-.23q.401 0 .561-.086a.55.55 0 0 0 .243-.275q.083-.189.083-.733V35.65q0-.966-.058-1.247-.045-.21-.14-.291a.4.4 0 0 0-.262-.08 1.2 1.2 0 0 0-.427.096l-.096-.23 1.762-.717h.274z" data-color="1"></path>
        <path fill="#222222" d="M59.218 17.83q.532.584 1.165 1.209.631.626 1.281 1.208l-1.348 1.417a69 69 0 0 1-1.098-1.058q-.533-.525-.999-1.008a15 15 0 0 1-.815-.876q-.333-.39-.416-.609h-.034q-.082.234-.457.675t-.79.876a55 55 0 0 1-2.214 2.166l-1.381-1.433a35 35 0 0 0 2.496-2.45q.365-.4.608-.767.24-.366.39-.75t.217-.8q.066-.418.066-.934V11.13h2.147v3.567q0 .501.041.9.042.4.175.759.134.357.359.716.224.36.608.758zm5.425-2.333h2.13v1.833h-2.13v8.2h-2.114v-15.5h2.114z" data-color="1"></path>
        <path fill="#222222" d="M73.13 19.163V18.03h-6.041v-1.617h14.179v1.617h-6.041v1.133h4.06v4h-8.22v.918h8.67v1.583H69.036v-4.017h8.221v-.9h-8.304v-1.584zm-4.044-3.683v-5.134H79.27v5.134zm2.064-1.617h6.057v-1.9H71.15z" data-color="1"></path>
        <path fill="#222222" d="M86.293 18.697q-.931 0-1.672-.291a3.8 3.8 0 0 1-1.257-.792 3.47 3.47 0 0 1-1.065-2.5v-.934q0-.699.274-1.35.275-.65.791-1.15a3.8 3.8 0 0 1 1.257-.792q.74-.291 1.672-.291.933 0 1.672.291a3.8 3.8 0 0 1 1.257.792q.516.5.79 1.15.275.651.275 1.35v.934q0 .7-.275 1.35a3.5 3.5 0 0 1-.79 1.15 3.8 3.8 0 0 1-1.256.791q-.741.292-1.673.292m0-6.284q-.465 0-.84.159-.374.158-.633.425a1.9 1.9 0 0 0-.4.617 1.9 1.9 0 0 0-.141.716v.634q0 .383.142.725.14.342.4.61.257.266.632.424.374.158.84.159.468 0 .84-.16a1.89 1.89 0 0 0 1.174-1.758v-.633q0-.367-.142-.717a1.9 1.9 0 0 0-.4-.617 1.9 1.9 0 0 0-.632-.425 2.1 2.1 0 0 0-.84-.16m.65 11.151h7.988v1.8H84.829v-5.2h2.114zm7.738-2.5h-2.097V10.029h2.097z" data-color="1"></path>
        <path fill="#222222" d="M97.394 11.23h7.239v1.783h-5.142v2.5h4.609v1.784h-4.61v2.633h1.149q1.198 0 2.563-.058a26 26 0 0 0 2.546-.224l.216 1.767q-.582.1-1.281.158-.7.06-1.457.092-.757.033-1.539.042-.782.008-1.548.008h-2.745zm7.555 4.216h2.546V10.03h2.114v15.502h-2.114v-8.284h-2.546z" data-color="1"></path>
        <path fill="#222222" d="M113.819 11.046v5.417q.683 0 1.265-.009.584-.008 1.106-.04.525-.034 1.04-.084.516-.05 1.065-.133l.233 1.683q-.582.117-1.173.183-.592.067-1.356.11-.766.04-1.79.05-1.022.007-2.471.007v-7.184zm5.226 11.918q-.082.233-.508.517-.425.284-1.106.633-.8.416-1.681.826a43 43 0 0 1-1.731.758l-.832-1.734a65 65 0 0 0 1.897-.817q.966-.433 1.698-.816.582-.317.865-.734t.283-1.05V19.23h2.13v1.317q0 .634.258 1.041.258.41.874.742.35.183.799.4a45 45 0 0 0 1.889.859q.49.208.924.374l-.816 1.684a67 67 0 0 1-3.394-1.584 10 10 0 0 1-1.049-.608q-.399-.275-.483-.492h-.016zm.366-8.084h-2.962v-1.784h2.962V10.23h1.981v8.268h-1.981zm3.046-4.85h1.997v9.967h-1.997z" data-color="1"></path>
        <path fill="#222222" d="M135.27 11.496h3.445v1.767h-8.92v-1.767h3.378V9.829h2.097zm-1.032 8.084q-.865 0-1.547-.208a3.6 3.6 0 0 1-1.149-.567 2.5 2.5 0 0 1-.715-.84 2.2 2.2 0 0 1-.25-1.034v-.534q0-.549.25-1.033t.715-.841a3.6 3.6 0 0 1 1.149-.567 5.3 5.3 0 0 1 1.547-.208q.865 0 1.548.208t1.148.567q.467.358.716.84.25.485.25 1.034v.534q0 .549-.25 1.033a2.5 2.5 0 0 1-.716.841q-.465.36-1.148.567a5.3 5.3 0 0 1-1.548.208m-1.897.85h10.252v5.3h-2.097v-3.533h-8.155zm1.897-5.034q-.415 0-.732.1a1.7 1.7 0 0 0-.525.258 1.2 1.2 0 0 0-.316.35.8.8 0 0 0-.108.392v.333q0 .2.108.391.109.192.316.35a1.7 1.7 0 0 0 .525.258q.317.1.732.1.816 0 1.249-.358.432-.359.432-.742v-.333q0-.384-.432-.741-.433-.36-1.249-.36zm6.274 3.1h-1.897v-1.783h1.897v-1.167h-1.897v-1.783h1.897v-3.734h2.081v9.701h-2.081z" data-color="1"></path>
        <path fill="#222222" d="M149.35 16.147q-.051.217-.341.525t-.675.658q-.565.534-1.139 1.026t-1.357 1.124l-1.298-1.533q.65-.5 1.315-1.084.666-.584 1.248-1.133.599-.584.857-1.167t.258-1.434v-2.416h2.13v2.333q0 .45.05.8t.166.634.325.542q.207.258.541.542.599.516 1.223.992t1.223.908l-1.215 1.467a59 59 0 0 1-1.039-.775 34 34 0 0 1-1.14-.909 21 21 0 0 1-.732-.616q-.3-.268-.383-.484zm.266 7.417h7.971v1.8h-10.085v-5.267h2.114zm7.722-2.534h-2.097v-11h2.097z" data-color="1"></path>
        <path fill="#222222" d="M166.291 25.998q-1.016 0-1.922-.175a6 6 0 0 1-1.589-.517 3.04 3.04 0 0 1-1.082-.867 1.97 1.97 0 0 1-.399-1.226v-.5q0-.666.358-1.166a2.94 2.94 0 0 1 .99-.85V18.73h-3.445v-1.7h14.179v1.7h-3.445v1.967q.633.35.991.85.357.5.357 1.166v.5q0 .7-.399 1.226-.4.525-1.082.867-.683.342-1.59.517a10 10 0 0 1-1.921.175zm0-9.684q-1.115 0-2.047-.193-.931-.19-1.606-.55-.673-.358-1.048-.891a2.1 2.1 0 0 1-.374-1.233v-.4q0-.7.374-1.234.375-.533 1.048-.892.675-.359 1.606-.55a10 10 0 0 1 2.047-.192q1.115 0 2.047.192.931.191 1.605.55.674.358 1.049.892t.374 1.233v.4q0 .7-.374 1.234t-1.049.891q-.674.36-1.605.55-.932.192-2.047.193m0-4.434q-.633 0-1.182.092a4.4 4.4 0 0 0-.948.258 2 2 0 0 0-.633.391q-.233.225-.233.492v.267q0 .266.233.491t.633.392q.399.167.948.258.549.092 1.182.092t1.181-.092q.55-.09.949-.258.4-.165.632-.392.233-.225.233-.491v-.267q0-.266-.233-.492a2 2 0 0 0-.632-.391 4.3 4.3 0 0 0-.949-.258 7 7 0 0 0-1.181-.092m0 9.75q-.55 0-1.073.084-.525.084-.932.241a2.1 2.1 0 0 0-.657.384q-.25.225-.25.508v.233q0 .284.25.509.249.225.657.383.407.159.932.242.524.083 1.073.083t1.073-.083.932-.242.657-.383.249-.509v-.233q0-.284-.249-.508a2.1 2.1 0 0 0-.657-.384 4.6 4.6 0 0 0-.932-.24 7 7 0 0 0-1.073-.084m0-1.7q.416 0 .807.034.392.033.774.083V18.73h-3.162v1.317q.382-.049.774-.083.391-.033.807-.033" data-color="1"></path>
        <path fill="#222222" d="M179.605 11.48h3.345v1.733h-8.854v-1.734h3.412V9.813h2.097zm-1.049 7.534a6 6 0 0 1-1.572-.184q-.69-.183-1.156-.509a2.24 2.24 0 0 1-.707-.766 2 2 0 0 1-.242-.96v-.5q0-.516.242-.958.241-.442.707-.767t1.156-.508 1.572-.183 1.573.183 1.157.508.706.767q.241.441.241.959v.5q0 .516-.241.959a2.26 2.26 0 0 1-.706.766 3.7 3.7 0 0 1-1.157.51q-.69.182-1.573.183m7.656.583v5.967h-9.619v-5.967h2.063v1.317h5.492v-1.317zm-7.656-4.3q-.849 0-1.272.274-.425.275-.425.626v.3q0 .35.425.625.423.275 1.272.275.85 0 1.274-.275.424-.274.424-.625v-.3q0-.35-.424-.626-.424-.275-1.274-.275m5.592 8.567v-1.25h-5.492v1.25zm2.064-10.301h2.03v1.833h-2.03v3.5h-2.097V10.03h2.097z" data-color="1"></path>
        <path fill="#222222" d="M195.148 11.496v1.817h-3.894v6.284h.482q1.015 0 2.047-.05a19 19 0 0 0 2.08-.217l.217 1.8q-1.016.184-2.156.234t-2.188.05h-2.563v-9.918zm3.628 3.817h1.364V10.03h2.014v15.502h-2.014V17.13h-1.364v7.65h-2.014V10.347h2.014z" data-color="1"></path>
        <path fill="#222222" d="M209.06 11.496h3.345v1.767h-8.853v-1.767h3.411V9.829h2.097zm-1.048 8.084q-.882 0-1.565-.208a3.6 3.6 0 0 1-1.148-.567 2.5 2.5 0 0 1-.715-.84 2.2 2.2 0 0 1-.25-1.034v-.534q0-.549.25-1.033t.715-.841a3.6 3.6 0 0 1 1.148-.567 5.4 5.4 0 0 1 1.565-.208c.588 0 1.095.07 1.556.208q.691.208 1.156.567.467.358.716.84.25.485.25 1.034v.534q0 .549-.25 1.033a2.5 2.5 0 0 1-.716.841q-.466.36-1.156.567a5.4 5.4 0 0 1-1.556.208m-2.214.85h9.869v5.3h-2.097v-3.533h-7.772zm2.214-5.034q-.833 0-1.265.36-.433.358-.433.74v.334q0 .384.433.741.432.36 1.265.359.832 0 1.265-.359t.432-.741v-.333q0-.384-.432-.742-.433-.359-1.265-.359m7.655-1.483h2.031v1.833h-2.031v3.984h-2.097v-9.7h2.097z" data-color="1"></path>
        <path fill="#222222" d="M224.97 17.83q.533.584 1.165 1.209.633.626 1.282 1.208l-1.348 1.417a69 69 0 0 1-1.099-1.058q-.532-.525-.998-1.008a15 15 0 0 1-.816-.876q-.332-.39-.416-.609h-.033q-.083.234-.457.675-.375.442-.791.876a55 55 0 0 1-2.213 2.167l-1.382-1.434a35 35 0 0 0 2.497-2.45 6 6 0 0 0 .607-.767q.241-.366.391-.75t.216-.8.067-.934V11.13h2.147v3.568q0 .5.041.9.042.4.175.758.133.357.358.716.224.36.608.758zm5.426-2.333h2.13v1.833h-2.13v8.201h-2.114V10.029h2.114z" data-color="1"></path>
        <path fill="#222222" d="M237.119 17.797q-.982 0-1.722-.284a3.7 3.7 0 0 1-1.241-.758 3.1 3.1 0 0 1-.748-1.084 3.3 3.3 0 0 1-.25-1.275v-.467q0-.667.25-1.276.25-.607.748-1.083.499-.475 1.241-.759.74-.283 1.722-.283.85 0 1.523.216.674.217 1.165.592.49.376.791.876.299.5.416 1.05h2.579v-3.234h2.097v7.985h-2.097v-3h-2.563a3.2 3.2 0 0 1-.399 1.074q-.3.509-.791.884t-1.173.6q-.683.224-1.547.224zm0-5.484a2.5 2.5 0 0 0-.874.142 1.7 1.7 0 0 0-.615.383 1.55 1.55 0 0 0-.358.542q-.116.3-.116.6v.367q0 .3.116.6.117.3.358.542.242.242.615.384.375.141.874.142.499 0 .874-.142a1.7 1.7 0 0 0 .616-.384q.24-.24.357-.542.117-.3.117-.6v-.367a1.64 1.64 0 0 0-.474-1.142 1.7 1.7 0 0 0-.616-.383 2.5 2.5 0 0 0-.874-.142m8.57 6.4v6.835h-9.852v-6.834h2.081v1.75h5.691v-1.75zm-2.08 5.101v-1.617h-5.691v1.617z" data-color="1"></path>
        <path fill="#222222" d="M248.202 10.98h7.24v1.816h-5.159v3.984q.865 0 1.647-.009a67 67 0 0 0 1.523-.033q.74-.025 1.489-.084a56 56 0 0 0 1.547-.142l.183 1.767q-.749.1-1.572.16-.824.057-1.823.091-.998.034-2.238.042t-2.837.008zm4.128 12.584h7.888v1.8h-10.002v-5.167h2.114zm7.522-9.684h2.03v1.833h-2.03v5.35h-2.097V10.03h2.097z" data-color="1"></path>
        <path fill="#03733F" d="M32.741 41.883H10.652l6.942-10.84H25.8z" data-color="2"></path>
        <path fill="#1C4594" d="m43.313 18.116-6.826 21.04-8.148-9.962 2.535-7.815z" data-color="3"></path>
        <path fill="#E95624" d="m24.012.7 17.87 13.004-11.978 4.683-6.638-4.83z" data-color="4"></path>
        <path fill="#C32030" d="M1.511 13.704 19.381.7l.745 12.857-6.637 4.83z" data-color="5"></path>
        <path fill="#2F478B" d="M6.905 39.157.08 18.117l12.438 3.262 2.536 7.815z" data-color="6"></path>
        <path fill="#222222" d="M18.789 22.51v.13H16.29v-.13h.16a.66.66 0 0 0 .333-.074.32.32 0 0 0 .141-.17q.039-.083.039-.444v-3.146q0-.367-.039-.46a.36.36 0 0 0-.157-.16.63.63 0 0 0-.318-.069h-.159v-.13h2.498v.13h-.159a.66.66 0 0 0-.334.074.34.34 0 0 0-.145.17q-.039.083-.039.444v3.146q0 .367.041.46a.36.36 0 0 0 .159.16.63.63 0 0 0 .319.069z" data-color="1"></path>
        <path fill="#222222" d="M20.751 19.243q.43 0 .8.222.369.222.561.632.192.409.192.896 0 .702-.356 1.175-.43.57-1.187.571c-.505 0-.877-.174-1.144-.522a1.93 1.93 0 0 1-.401-1.21c0-.459.136-.885.41-1.236q.41-.528 1.125-.528m.014.25a.4.4 0 0 0-.308.137q-.129.135-.169.536-.04.4-.04 1.113 0 .378.048.706a.7.7 0 0 0 .166.38q.126.13.29.131.16 0 .263-.088a.6.6 0 0 0 .184-.335q.07-.334.07-1.354 0-.6-.066-.824a.63.63 0 0 0-.198-.326.37.37 0 0 0-.24-.075" data-color="1"></path>
        <path fill="#222222" d="M27.112 17.857v1.295h-.127q-.112-.448-.25-.643a.96.96 0 0 0-.377-.312q-.134-.064-.469-.064h-.356v3.69q0 .367.04.459.041.092.16.16a.64.64 0 0 0 .322.07h.158v.13h-2.5v-.13h.158a.66.66 0 0 0 .334-.075.34.34 0 0 0 .145-.169q.039-.084.039-.444v-3.69h-.346q-.482 0-.7.204-.307.287-.388.816h-.134v-1.295h4.29z" data-color="1"></path>
        <path fill="#222222" d="M18.93 23.966v.995h-.081q-.093-.39-.347-.597a.88.88 0 0 0-1.067-.053.9.9 0 0 0-.328.404q-.133.32-.133.712c0 .26.033.49.098.701q.097.316.304.479a.85.85 0 0 0 .537.162q.27 0 .495-.119.226-.12.475-.408v.247q-.24.252-.502.365a1.5 1.5 0 0 1-.61.114q-.457 0-.814-.185a1.3 1.3 0 0 1-.55-.53 1.5 1.5 0 0 1-.193-.733q0-.411.215-.78.215-.368.578-.57a1.57 1.57 0 0 1 .775-.204q.302 0 .638.131a1 1 0 0 0 .247.076.16.16 0 0 0 .117-.05.27.27 0 0 0 .065-.157z" data-color="1"></path>
        <path fill="#222222" d="M20.839 23.991q.684-.026 1.112.4t.428 1.065q0 .546-.319.96-.423.55-1.194.551-.772 0-1.196-.525a1.52 1.52 0 0 1-.334-.984q0-.64.435-1.066t1.068-.401m.025.136q-.393 0-.598.401-.167.33-.167.949 0 .734.258 1.086.18.245.503.245a.6.6 0 0 0 .364-.106q.185-.136.29-.433.104-.298.104-.775 0-.57-.106-.853-.105-.282-.27-.398a.63.63 0 0 0-.376-.117z" data-color="1"></path>
        <path fill="#222222" d="m24.567 23.967.024.956h-.087a.98.98 0 0 0-.301-.579.76.76 0 0 0-.519-.219.5.5 0 0 0-.341.116.35.35 0 0 0-.126.265q0 .095.045.17.06.099.197.196.1.07.458.248.503.247.678.467a.8.8 0 0 1 .174.504q0 .36-.28.62a1 1 0 0 1-.712.259q-.135 0-.256-.028a2 2 0 0 1-.303-.104.5.5 0 0 0-.166-.042.2.2 0 0 0-.117.042.3.3 0 0 0-.1.13h-.078v-1.085h.079q.092.457.358.698a.84.84 0 0 0 .572.24.53.53 0 0 0 .377-.129.4.4 0 0 0 .14-.3.4.4 0 0 0-.054-.197.6.6 0 0 0-.163-.182 2.5 2.5 0 0 0-.39-.223 3.4 3.4 0 0 1-.562-.328 1 1 0 0 1-.263-.303.75.75 0 0 1-.092-.368q0-.342.252-.584a.88.88 0 0 1 .634-.241 1.1 1.1 0 0 1 .513.128.6.6 0 0 0 .2.069.11.11 0 0 0 .086-.034q.032-.033.06-.163z" data-color="1"></path>
        <path fill="#222222" d="m26.974 23.967.024.956h-.087a.98.98 0 0 0-.301-.579.76.76 0 0 0-.52-.219.5.5 0 0 0-.34.116.35.35 0 0 0-.126.265q0 .095.045.17.06.099.196.196.1.07.459.248.502.247.678.467a.8.8 0 0 1 .173.504q0 .36-.28.62a1 1 0 0 1-.711.259q-.135 0-.256-.028a2 2 0 0 1-.303-.104.5.5 0 0 0-.167-.042.2.2 0 0 0-.116.042.3.3 0 0 0-.1.13h-.078v-1.085h.078q.094.457.358.698a.84.84 0 0 0 .572.24.54.54 0 0 0 .377-.129.4.4 0 0 0 .141-.3.4.4 0 0 0-.054-.197.6.6 0 0 0-.164-.182 2.5 2.5 0 0 0-.389-.223 3.4 3.4 0 0 1-.562-.328 1 1 0 0 1-.263-.303.75.75 0 0 1-.092-.368q0-.342.252-.584a.88.88 0 0 1 .634-.241 1.1 1.1 0 0 1 .512.128.6.6 0 0 0 .2.069.11.11 0 0 0 .087-.034q.03-.033.06-.163z" data-color="1"></path>
    </g>
</svg>