<svg preserveAspectRatio="xMidYMid meet" data-bbox="0 0 44 44" xmlns="http://www.w3.org/2000/svg" viewBox="0 0 44 44" height="44" width="44" data-type="color" role="presentation" aria-hidden="true" aria-label="">
    <g>
        <path fill="#03733F" d="M32.741 41.883H10.652l6.942-10.84H25.8z" data-color="2"></path>
        <path fill="#1C4594" d="m43.313 18.116-6.826 21.04-8.148-9.962 2.535-7.815z" data-color="3"></path>
        <path fill="#E95624" d="m24.012.7 17.87 13.004-11.978 4.683-6.638-4.83z" data-color="4"></path>
        <path fill="#C32030" d="M1.511 13.704 19.381.7l.745 12.857-6.637 4.83z" data-color="5"></path>
        <path fill="#2F478B" d="M6.905 39.157.08 18.117l12.438 3.262 2.536 7.815z" data-color="6"></path>
        <path fill="#222222" d="M18.789 22.51v.13H16.29v-.13h.16a.66.66 0 0 0 .333-.074.32.32 0 0 0 .141-.17q.039-.083.039-.444v-3.146q0-.367-.039-.46a.36.36 0 0 0-.157-.16.63.63 0 0 0-.318-.069h-.159v-.13h2.498v.13h-.159a.66.66 0 0 0-.334.074.34.34 0 0 0-.145.17q-.039.083-.039.444v3.146q0 .367.041.46a.36.36 0 0 0 .159.16.63.63 0 0 0 .319.069z" data-color="1"></path>
        <path fill="#222222" d="M20.751 19.243q.43 0 .8.222.369.222.561.632.192.409.192.896 0 .702-.356 1.175-.43.57-1.187.571c-.505 0-.877-.174-1.144-.522a1.93 1.93 0 0 1-.401-1.21c0-.459.136-.885.41-1.236q.41-.528 1.125-.528m.014.25a.4.4 0 0 0-.308.137q-.129.135-.169.536-.04.4-.04 1.113 0 .378.048.706a.7.7 0 0 0 .166.38q.126.13.29.131.16 0 .263-.088a.6.6 0 0 0 .184-.335q.07-.334.07-1.354 0-.6-.066-.824a.63.63 0 0 0-.198-.326.37.37 0 0 0-.24-.075" data-color="1"></path>
        <path fill="#222222" d="M27.112 17.857v1.295h-.127q-.112-.448-.25-.643a.96.96 0 0 0-.377-.312q-.134-.064-.469-.064h-.356v3.69q0 .367.04.459.041.092.16.16a.64.64 0 0 0 .322.07h.158v.13h-2.5v-.13h.158a.66.66 0 0 0 .334-.075.34.34 0 0 0 .145-.169q.039-.084.039-.444v-3.69h-.346q-.482 0-.7.204-.307.287-.388.816h-.134v-1.295h4.29z" data-color="1"></path>
        <path fill="#222222" d="M18.93 23.966v.995h-.081q-.093-.39-.347-.597a.88.88 0 0 0-1.067-.053.9.9 0 0 0-.328.404q-.133.32-.133.712c0 .26.033.49.098.701q.097.316.304.479a.85.85 0 0 0 .537.162q.27 0 .495-.119.226-.12.475-.408v.247q-.24.252-.502.365a1.5 1.5 0 0 1-.61.114q-.457 0-.814-.185a1.3 1.3 0 0 1-.55-.53 1.5 1.5 0 0 1-.193-.733q0-.411.215-.78.215-.368.578-.57a1.57 1.57 0 0 1 .775-.204q.302 0 .638.131a1 1 0 0 0 .247.076.16.16 0 0 0 .117-.05.27.27 0 0 0 .065-.157z" data-color="1"></path>
        <path fill="#222222" d="M20.839 23.991q.684-.026 1.112.4t.428 1.065q0 .546-.319.96-.423.55-1.194.551-.772 0-1.196-.525a1.52 1.52 0 0 1-.334-.984q0-.64.435-1.066t1.068-.401m.025.136q-.393 0-.598.401-.167.33-.167.949 0 .734.258 1.086.18.245.503.245a.6.6 0 0 0 .364-.106q.185-.136.29-.433.104-.298.104-.775 0-.57-.106-.853-.105-.282-.27-.398a.63.63 0 0 0-.376-.117z" data-color="1"></path>
        <path fill="#222222" d="m24.567 23.967.024.956h-.087a.98.98 0 0 0-.301-.579.76.76 0 0 0-.519-.219.5.5 0 0 0-.341.116.35.35 0 0 0-.126.265q0 .095.045.17.06.099.197.196.1.07.458.248.503.247.678.467a.8.8 0 0 1 .174.504q0 .36-.28.62a1 1 0 0 1-.712.259q-.135 0-.256-.028a2 2 0 0 1-.303-.104.5.5 0 0 0-.166-.042.2.2 0 0 0-.117.042.3.3 0 0 0-.1.13h-.078v-1.085h.079q.092.457.358.698a.84.84 0 0 0 .572.24.53.53 0 0 0 .377-.129.4.4 0 0 0 .14-.3.4.4 0 0 0-.054-.197.6.6 0 0 0-.163-.182 2.5 2.5 0 0 0-.39-.223 3.4 3.4 0 0 1-.562-.328 1 1 0 0 1-.263-.303.75.75 0 0 1-.092-.368q0-.342.252-.584a.88.88 0 0 1 .634-.241 1.1 1.1 0 0 1 .513.128.6.6 0 0 0 .2.069.11.11 0 0 0 .086-.034q.032-.033.06-.163z" data-color="1"></path>
        <path fill="#222222" d="m26.974 23.967.024.956h-.087a.98.98 0 0 0-.301-.579.76.76 0 0 0-.52-.219.5.5 0 0 0-.34.116.35.35 0 0 0-.126.265q0 .095.045.17.06.099.196.196.1.07.459.248.502.247.678.467a.8.8 0 0 1 .173.504q0 .36-.28.62a1 1 0 0 1-.711.259q-.135 0-.256-.028a2 2 0 0 1-.303-.104.5.5 0 0 0-.167-.042.2.2 0 0 0-.116.042.3.3 0 0 0-.1.13h-.078v-1.085h.078q.094.457.358.698a.84.84 0 0 0 .572.24.54.54 0 0 0 .377-.129.4.4 0 0 0 .141-.3.4.4 0 0 0-.054-.197.6.6 0 0 0-.164-.182 2.5 2.5 0 0 0-.389-.223 3.4 3.4 0 0 1-.562-.328 1 1 0 0 1-.263-.303.75.75 0 0 1-.092-.368q0-.342.252-.584a.88.88 0 0 1 .634-.241 1.1 1.1 0 0 1 .512.128.6.6 0 0 0 .2.069.11.11 0 0 0 .087-.034q.03-.033.06-.163z" data-color="1"></path>
    </g>
</svg>